#define myIcon_width 16
#define myIcon_height 16
static unsigned char myIcon_bits[] = {
   0x00, 0x00, 0x00, 0x00, 0x00, 0x00, 0x00, 0x00, 0x00, 0x00, 0x00, 0x00,
   0xcf, 0xf3, 0xcf, 0xf3, 0xcf, 0xf3, 0xcf, 0xf3, 0x00, 0x00, 0x00, 0x00,
   0x00, 0x00, 0x00, 0x00, 0x00, 0x00, 0x00, 0x00};
